<mxfile host="app.diagrams.net" modified="2021-09-13T09:29:36.576Z" agent="5.0 (Macintosh; Intel Mac OS X 10_15_7) AppleWebKit/537.36 (KHTML, like Gecko) Chrome/93.0.4577.63 Safari/537.36" etag="-N6-nFajIVETaVTKf0GP" version="14.9.2" type="github">
  <diagram id="LrErmU3kdyH9J3qZRywh" name="Page-1">
    <mxGraphModel dx="2066" dy="1129" grid="1" gridSize="10" guides="1" tooltips="1" connect="1" arrows="1" fold="1" page="1" pageScale="1" pageWidth="827" pageHeight="1169" math="0" shadow="0">
      <root>
        <mxCell id="0" />
        <mxCell id="1" parent="0" />
        <mxCell id="sOtegeUWnKmIMajF2aSl-16" value="" style="rounded=1;whiteSpace=wrap;html=1;" vertex="1" parent="1">
          <mxGeometry x="10" y="370" width="690" height="220" as="geometry" />
        </mxCell>
        <mxCell id="sOtegeUWnKmIMajF2aSl-2" value="" style="html=1;shadow=0;dashed=0;align=center;verticalAlign=middle;shape=mxgraph.arrows2.arrow;dy=0.6;dx=40;notch=0;" vertex="1" parent="1">
          <mxGeometry x="110" y="422.5" width="90" height="35" as="geometry" />
        </mxCell>
        <mxCell id="sOtegeUWnKmIMajF2aSl-3" value="" style="shape=actor;whiteSpace=wrap;html=1;" vertex="1" parent="1">
          <mxGeometry x="50" y="410" width="40" height="60" as="geometry" />
        </mxCell>
        <mxCell id="sOtegeUWnKmIMajF2aSl-5" value="" style="outlineConnect=0;fontColor=#232F3E;gradientColor=none;fillColor=#232F3E;strokeColor=none;dashed=0;verticalLabelPosition=bottom;verticalAlign=top;align=center;html=1;fontSize=12;fontStyle=0;aspect=fixed;pointerEvents=1;shape=mxgraph.aws4.traditional_server;" vertex="1" parent="1">
          <mxGeometry x="230" y="401" width="45" height="78" as="geometry" />
        </mxCell>
        <mxCell id="sOtegeUWnKmIMajF2aSl-6" value="IAS域名解析" style="text;html=1;align=center;verticalAlign=middle;resizable=0;points=[];autosize=1;strokeColor=none;" vertex="1" parent="1">
          <mxGeometry x="212.5" y="479" width="80" height="20" as="geometry" />
        </mxCell>
        <mxCell id="sOtegeUWnKmIMajF2aSl-7" value="SmartGate智能网关登录&amp;amp;鉴权" style="outlineConnect=0;fontColor=#232F3E;gradientColor=none;fillColor=#232F3E;strokeColor=none;dashed=0;verticalLabelPosition=bottom;verticalAlign=top;align=center;html=1;fontSize=12;fontStyle=0;aspect=fixed;pointerEvents=1;shape=mxgraph.aws4.traditional_server;" vertex="1" parent="1">
          <mxGeometry x="413.5" y="401" width="45" height="78" as="geometry" />
        </mxCell>
        <mxCell id="sOtegeUWnKmIMajF2aSl-8" value="" style="html=1;shadow=0;dashed=0;align=center;verticalAlign=middle;shape=mxgraph.arrows2.arrow;dy=0.6;dx=40;notch=0;" vertex="1" parent="1">
          <mxGeometry x="300" y="422.5" width="90" height="35" as="geometry" />
        </mxCell>
        <mxCell id="sOtegeUWnKmIMajF2aSl-9" value="" style="html=1;shadow=0;dashed=0;align=center;verticalAlign=middle;shape=mxgraph.arrows2.arrow;dy=0.6;dx=40;notch=0;" vertex="1" parent="1">
          <mxGeometry x="490" y="422.5" width="90" height="35" as="geometry" />
        </mxCell>
        <mxCell id="sOtegeUWnKmIMajF2aSl-12" style="edgeStyle=orthogonalEdgeStyle;rounded=0;orthogonalLoop=1;jettySize=auto;html=1;entryX=0.5;entryY=1;entryDx=0;entryDy=0;" edge="1" parent="1" source="sOtegeUWnKmIMajF2aSl-10" target="sOtegeUWnKmIMajF2aSl-3">
          <mxGeometry relative="1" as="geometry">
            <Array as="points">
              <mxPoint x="633" y="530" />
              <mxPoint x="70" y="530" />
            </Array>
          </mxGeometry>
        </mxCell>
        <mxCell id="sOtegeUWnKmIMajF2aSl-14" value="数据返回" style="edgeLabel;html=1;align=center;verticalAlign=middle;resizable=0;points=[];" vertex="1" connectable="0" parent="sOtegeUWnKmIMajF2aSl-12">
          <mxGeometry x="-0.0655" relative="1" as="geometry">
            <mxPoint as="offset" />
          </mxGeometry>
        </mxCell>
        <mxCell id="sOtegeUWnKmIMajF2aSl-10" value="PBA WEB后台" style="outlineConnect=0;fontColor=#232F3E;gradientColor=none;fillColor=#232F3E;strokeColor=none;dashed=0;verticalLabelPosition=bottom;verticalAlign=top;align=center;html=1;fontSize=12;fontStyle=0;aspect=fixed;pointerEvents=1;shape=mxgraph.aws4.traditional_server;" vertex="1" parent="1">
          <mxGeometry x="610" y="401" width="45" height="78" as="geometry" />
        </mxCell>
        <mxCell id="sOtegeUWnKmIMajF2aSl-15" value="PBA小程序客户端" style="text;html=1;strokeColor=none;fillColor=none;align=center;verticalAlign=middle;whiteSpace=wrap;rounded=0;" vertex="1" parent="1">
          <mxGeometry x="10" y="484" width="116" height="10" as="geometry" />
        </mxCell>
        <mxCell id="sOtegeUWnKmIMajF2aSl-17" value="前端访问完整链路" style="text;html=1;strokeColor=none;fillColor=none;align=center;verticalAlign=middle;whiteSpace=wrap;rounded=0;" vertex="1" parent="1">
          <mxGeometry x="280" y="550" width="120" height="30" as="geometry" />
        </mxCell>
      </root>
    </mxGraphModel>
  </diagram>
</mxfile>
